<?xml version="1.0" encoding="UTF-8" standalone="no"?>
<!-- Created with Inkscape (http://www.inkscape.org/) -->

<svg
   width="210mm"
   height="297mm"
   viewBox="0 0 210 297"
   version="1.1"
   id="svg5"
   inkscape:version="1.1 (c68e22c387, 2021-05-23)"
   sodipodi:docname="goomerang.svg"
   xmlns:inkscape="http://www.inkscape.org/namespaces/inkscape"
   xmlns:sodipodi="http://sodipodi.sourceforge.net/DTD/sodipodi-0.dtd"
   xmlns:xlink="http://www.w3.org/1999/xlink"
   xmlns="http://www.w3.org/2000/svg"
   xmlns:svg="http://www.w3.org/2000/svg">
  <sodipodi:namedview
     id="namedview7"
     pagecolor="#ffffff"
     bordercolor="#666666"
     borderopacity="1.0"
     inkscape:pageshadow="2"
     inkscape:pageopacity="0.0"
     inkscape:pagecheckerboard="0"
     inkscape:document-units="mm"
     showgrid="false"
     inkscape:zoom="1.4142136"
     inkscape:cx="110.30866"
     inkscape:cy="336.58283"
     inkscape:window-width="2533"
     inkscape:window-height="1199"
     inkscape:window-x="26"
     inkscape:window-y="23"
     inkscape:window-maximized="0"
     inkscape:current-layer="layer1" />
  <defs
     id="defs2">
    <linearGradient
       inkscape:collect="always"
       id="linearGradient1662">
      <stop
         style="stop-color:#000000;stop-opacity:1;"
         offset="0"
         id="stop1682" />
      <stop
         style="stop-color:#000000;stop-opacity:0;"
         offset="1"
         id="stop1684" />
    </linearGradient>
    <filter
       inkscape:collect="always"
       style="color-interpolation-filters:sRGB"
       id="filter6550-4-3"
       x="-0.020778156"
       width="1.0415563"
       y="-0.020778156"
       height="1.0415563">
      <feGaussianBlur
         inkscape:collect="always"
         stdDeviation="0.10338297"
         id="feGaussianBlur6552-2-6" />
    </filter>
    <radialGradient
       inkscape:collect="always"
       xlink:href="#linearGradient1662"
       id="radialGradient1664-5-4-1-7"
       cx="-77.107147"
       cy="179.3053"
       fx="-77.107147"
       fy="179.3053"
       r="27.316582"
       gradientTransform="matrix(-0.191213,0.18078422,-0.04208855,-0.03888576,103.60299,133.89554)"
       gradientUnits="userSpaceOnUse" />
    <filter
       inkscape:collect="always"
       style="color-interpolation-filters:sRGB"
       id="filter6550-4-3-9"
       x="-0.020778156"
       width="1.0415563"
       y="-0.020778156"
       height="1.0415563">
      <feGaussianBlur
         inkscape:collect="always"
         stdDeviation="0.10338297"
         id="feGaussianBlur6552-2-6-1" />
    </filter>
    <radialGradient
       inkscape:collect="always"
       xlink:href="#linearGradient1662"
       id="radialGradient1664-5-4-1-7-2"
       cx="-77.107147"
       cy="179.3053"
       fx="-77.107147"
       fy="179.3053"
       r="27.316582"
       gradientTransform="matrix(-0.191213,0.18078422,-0.04208855,-0.03888576,85.629434,134.33819)"
       gradientUnits="userSpaceOnUse" />
  </defs>
  <g
     inkscape:label="Layer 1"
     inkscape:groupmode="layer"
     id="layer1">
    <path
       d="m 37.894771,81.617621 45.785346,39.620649 c 12.28437,10.63036 28.441983,8.99478 37.828473,-1.00566 l 40.96948,-43.649169 c 2.89636,-3.0858 2.18854,-5.494566 -0.88756,-8.401223 -4.29359,-4.057093 -10.34129,-0.296334 -14.99867,2.748507 0,0 -25.36252,23.505336 -35.02449,26.869796 -9.66197,3.364459 -14.072328,2.17081 -20.570442,-0.0179 C 75.959437,92.717691 53.069606,69.015757 53.069606,69.015757 48.155689,65.737292 41.644573,66.473918 37.587483,70.767511 c -2.906661,3.0761 -2.768812,7.94345 0.307288,10.85011 z M 151.19043,69.403548 c 3.20391,-2.410515 7.64437,-2.161395 10.55871,0.592411 1.52111,1.437325 1.58927,3.843982 0.15194,5.365092 l -5.67601,6.00688 -9.87281,-8.77467 z m -5.78085,4.203713 9.75799,8.83394 -3.94323,4.0224 -9.97202,-8.77093 z m -80.881313,7.71828 c 0,0 18.583624,16.00967 27.340351,18.40683 8.756742,2.397159 13.204852,1.811479 21.477972,-1.25005 8.27312,-3.06153 27.01553,-19.8719 27.01553,-19.8719 l 10.18391,8.83234 -29.6212,32.329549 c -9.52923,10.40053 -26.31724,10.09603 -36.570157,0.40786 L 53.073694,93.225851 Z m -6.432664,-5.16517 5.4829,4.55817 -11.394871,11.74825 -5.16364,-4.94291 z m -6.529571,-6.205739 5.639188,5.362399 -11.174658,11.38097 c 0,0 -7.096305,-5.35872 -8.050011,-7.9721 -0.953706,-2.61338 -0.727893,-4.96323 0.78894,-6.56012 2.981171,-3.13854 9.844058,-4.923798 12.796541,-2.211149 z"
       id="path391"
       style="stroke-width:0.190217"
       sodipodi:nodetypes="cssssczacsccsscccccccccczccsscccccccscczas" />
    <g
       id="g8120"
       transform="matrix(0.46133097,0,0,0.46133097,134.53849,97.166024)">
      <g
         id="g8275"
         transform="translate(-29.832091,-47.261774)">
        <path
           style="fill:none;stroke:#000000;stroke-width:1.30497;stroke-linecap:butt;stroke-linejoin:miter;stroke-miterlimit:4;stroke-dasharray:none;stroke-opacity:1"
           d="M -49.675947,111.19353 Z"
           id="path5872-2-7" />
        <path
           style="fill:#e9dfca;fill-opacity:1;stroke:#000000;stroke-width:1.30497;stroke-linecap:butt;stroke-linejoin:miter;stroke-miterlimit:4;stroke-dasharray:none;stroke-opacity:1"
           d="m -47.427884,94.582907 c -1.499069,0.779261 -2.762748,4.853326 -1.229709,6.868303 1.017555,1.06603 3.212713,-0.37041 4.291847,-0.0482 3.615618,1.26295 6.286321,0.90482 7.930166,0.97356 1.259437,0.0924 2.893449,-0.27506 3.657419,-0.96603 0.763974,-0.69092 0.891118,-0.92015 1.116565,-1.743135 0.225457,-0.822994 0.589365,-2.200486 0.215379,-3.190677 -0.373987,-0.990201 -0.996347,-2.451316 -2.252499,-2.287341"
           id="path5874-8-6"
           sodipodi:nodetypes="cccczczc" />
        <path
           style="fill:none;stroke:#000000;stroke-width:1.30497;stroke-linecap:butt;stroke-linejoin:miter;stroke-miterlimit:4;stroke-dasharray:none;stroke-opacity:1"
           d="m -45.445816,101.39692 c 0.216486,2.03663 0.0596,2.32896 0.100592,3.48671 0.04107,1.15774 -0.285986,2.85539 0.689964,3.71325 1.010008,0.88776 4.147423,0.4304 4.147423,0.4304 0.143323,-0.6129 0,0 0,0 0,0 0.166344,-0.26969 0.143323,-0.6129 l -0.08057,-1.20116 -0.04028,-0.60058 -0.264723,-3.94667"
           id="path5880-4-8"
           sodipodi:nodetypes="czaccsccc" />
        <path
           style="fill:none;stroke:#000000;stroke-width:1.30497;stroke-linecap:butt;stroke-linejoin:miter;stroke-miterlimit:4;stroke-dasharray:none;stroke-opacity:1"
           d="m -40.507837,109.02728 c 0,0 1.688074,-0.25975 2.742464,-0.35633 0.427269,-0.0396 0.931719,-0.19993 0.931719,-0.19993 0.324888,-0.20052 0.86506,-0.61126 1.075623,-1.17353 0.210553,-0.56227 -0.01888,-1.35128 -0.07981,-2.02356 -0.08837,-0.97535 -0.219787,-2.37722 -0.414146,-2.90967"
           id="path5884-1-5"
           sodipodi:nodetypes="csszac" />
        <path
           style="fill:#b4a49b;fill-opacity:1;stroke:#000000;stroke-width:1.30497;stroke-linecap:butt;stroke-linejoin:miter;stroke-miterlimit:4;stroke-dasharray:none;stroke-opacity:1"
           d="m -39.978653,96.243844 c -1.455136,0.09159 -5.064736,0.692448 -6.524607,-0.214364 -1.578215,-0.980317 -0.840964,-3.927845 0.239193,-5.048426 3.238969,-3.36024 12.219896,-1.329461 12.59378,2.799313 0.232694,2.569638 -6.266305,2.467752 -6.308366,2.463477"
           id="path5886-2-3"
           sodipodi:nodetypes="csssc" />
        <path
           style="opacity:0.89;fill:#ffffff;fill-opacity:1;stroke:none;stroke-width:1.30497;stroke-miterlimit:4;stroke-dasharray:none;stroke-opacity:1"
           d="m -43.376816,108.89704 c -0.796031,-0.12426 -1.154719,-0.33949 -1.481787,-0.88913 -0.289124,-0.48586 -0.312402,-0.75132 -0.323223,-3.68624 -0.0064,-1.73945 0.08534,-2.49355 0.150347,-2.47487 0.065,0.0187 0.993408,-0.28209 2.116691,0.13068 l 2.16474,0.68849 0.07176,2.88424 c 0.107121,1.5522 0.15814,2.92995 0.114151,3.06158 -0.06336,0.18949 -0.314586,0.25191 -1.206414,0.29975 -0.619505,0.0335 -1.342333,0.0267 -1.606232,-0.0145 z"
           id="path6160-3-7"
           sodipodi:nodetypes="cssssccssc" />
        <path
           style="opacity:0.89;fill:#ffffff;fill-opacity:1;stroke:none;stroke-width:1.30497;stroke-miterlimit:4;stroke-dasharray:none;stroke-opacity:1"
           d="m -40.337923,105.83369 -0.412165,-3.16772 2.300477,0.057 2.088259,-0.13005 0.23298,1.60177 c 0.522518,3.59251 0.252127,4.06073 -2.558471,4.42926 l -1.451161,0.19024 z"
           id="path6162-2-9"
           sodipodi:nodetypes="ccccsscc" />
      </g>
    </g>
    <circle
       style="fill:#ffffff;fill-opacity:1;stroke:#000000;stroke-width:0.845562;stroke-miterlimit:4;stroke-dasharray:none;stroke-opacity:1;filter:url(#filter6550-4-3)"
       id="path1424-6-3-0-6-6"
       cx="135.31548"
       cy="110.36905"
       r="16.144361"
       transform="matrix(0.40082158,0,0,0.37461567,56.595664,67.819153)" />
    <ellipse
       style="fill:#000000;fill-opacity:1;stroke:url(#radialGradient1664-5-4-1-7);stroke-width:0.23341;stroke-miterlimit:4;stroke-dasharray:none;stroke-opacity:1"
       id="path1424-0-3-1-9-2"
       cx="110.80021"
       cy="112.9833"
       rx="1.2261941"
       ry="0.95421869" />
    <circle
       style="fill:#ffffff;fill-opacity:1;stroke:#000000;stroke-width:0.845562;stroke-miterlimit:4;stroke-dasharray:none;stroke-opacity:1;filter:url(#filter6550-4-3-9)"
       id="path1424-6-3-0-6-6-3"
       cx="135.31548"
       cy="110.36905"
       r="16.144361"
       transform="matrix(0.40082158,0,0,0.37461567,39.151252,68.261803)" />
    <ellipse
       style="fill:#000000;fill-opacity:1;stroke:url(#radialGradient1664-5-4-1-7-2);stroke-width:0.23341;stroke-miterlimit:4;stroke-dasharray:none;stroke-opacity:1"
       id="path1424-0-3-1-9-2-6"
       cx="92.82663"
       cy="113.42599"
       rx="1.2261941"
       ry="0.95421869" />
    <path
       style="opacity:1;stroke-width:1.41421;fill:#9eecff;fill-opacity:1.0"
       d="m 366.28131,478.63914 c -5.05581,-1.08275 -14.91995,-4.80253 -21.92031,-8.2662 -11.42283,-5.65183 -19.32589,-11.98079 -77.07464,-61.72326 -35.39069,-30.48413 -64.58481,-55.6427 -64.87581,-55.90793 -0.291,-0.26524 8.89584,-10.28169 20.41519,-22.25879 l 20.94428,-21.77654 19.8899,15.79461 c 50.45657,40.06768 72.88925,52.56268 103.0403,57.39348 29.01375,4.64858 62.53488,-5.20661 94.39933,-27.75332 15.45858,-10.93822 42.43783,-32.36205 58.28881,-46.28631 l 10.97858,-9.64411 18.40152,15.89854 c 10.12083,8.7442 18.22659,16.3692 18.01279,16.94444 -1.18235,3.18128 -117.0444,127.93049 -122.52773,131.92621 -21.58371,15.72808 -50.51739,21.53882 -77.97221,15.65918 z m 26.96303,-3.51314 c 1.72207,-0.92163 2.73546,-2.95702 2.73546,-5.4942 0,-2.73836 1.1333,-4.77282 3.53553,-6.34681 2.73953,-1.79502 3.53553,-3.52061 3.53553,-7.66447 0,-10.66256 -13.11124,-19.65463 -23.61217,-16.19391 -8.66674,2.85625 -14.05777,23.09833 -6.43986,24.18024 2.65617,0.37724 3.18198,1.33148 3.18198,5.7747 0,2.92754 0.42426,5.74707 0.94281,6.2656 1.47829,1.47831 13.08586,1.10305 16.12072,-0.52115 z m -28.92017,-39.42535 c 15.32335,-6.95862 19.08617,-26.53536 7.28776,-37.916 -5.69184,-5.4903 -10.68899,-7.46171 -18.91406,-7.46171 -16.2233,0 -28.6053,14.82515 -24.65004,29.51386 4.11508,15.28222 21.15146,22.73234 36.27634,15.86385 z m 62.91085,-0.36659 c 11.24186,-3.87712 16.82804,-11.51915 16.82804,-23.02121 0,-8.17311 -2.7385,-13.62763 -9.38839,-18.69975 -7.29662,-5.5654 -21.28756,-6.30091 -29.47366,-1.54945 -9.89786,5.74503 -14.51934,18.42695 -10.54123,28.92637 4.58244,12.09437 19.74241,18.76985 32.57524,14.34404 z"
       id="path8318"
       transform="scale(0.26458333)" />
    <path
       style="opacity:1;fill:#9eecff;fill-opacity:1;stroke-width:1.41421"
       d="m 158.40061,312.89475 c -11.31883,-10.75507 -13.25388,-13.29105 -14.78733,-19.37949 -2.21256,-8.78481 -0.83437,-15.34648 4.36267,-20.77102 9.60053,-10.0208 31.63961,-15.5121 41.6189,-10.36984 2.67273,1.37724 9.49549,6.99321 15.16169,12.47994 l 10.30218,9.97587 -20.18338,20.21945 c -11.10086,11.1207 -20.91876,20.21946 -21.81755,20.21946 -0.8988,0 -7.49453,-5.56847 -14.65718,-12.37437 z"
       id="path8394"
       transform="scale(0.26458333)" />
    <path
       style="opacity:1;fill:#000000;fill-opacity:1;stroke-width:1.41421"
       d="m 573.43662,291.1872 c -9.26011,-8.30198 -17.01121,-15.64404 -17.22467,-16.31569 -0.39443,-1.24112 4.05635,-4.43218 17.87556,-12.81617 6.23273,-3.78134 9.17118,-4.66847 15.4634,-4.66847 17.2131,0 29.9905,12.63037 23.81411,23.54009 -0.94471,1.66869 -6.52684,8.05616 -12.40474,14.19436 L 590.2732,306.2817 Z"
       id="path8433"
       transform="scale(0.26458333)" />
    <path
       style="opacity:1;fill:#000000;fill-opacity:0;stroke-width:1.41421"
       d="m 188.1341,339.57208 -9.14869,-8.22256 19.67976,-20.71787 c 10.82386,-11.39483 20.19766,-20.71787 20.83066,-20.71787 0.633,0 5.21666,3.32773 10.18592,7.39496 l 9.03501,7.39496 -11.06395,12.05048 c -6.08517,6.62776 -15.40782,16.32322 -20.71699,21.54547 l -9.65303,9.495 z"
       id="path8509"
       transform="scale(0.26458333)" />
    <path
       style="opacity:1;fill:#000000;fill-opacity:0;stroke-width:1.41421"
       d="m 558.61435,314.39477 c -6.61144,-5.92786 -14.48777,-12.97757 -17.50294,-15.66603 l -5.48214,-4.88809 7.1271,-7.1271 7.1271,-7.1271 17.78885,16.08704 17.78884,16.08705 -6.65273,6.75429 c -3.65899,3.71486 -6.99484,6.73259 -7.41299,6.70608 -0.41815,-0.0265 -6.16964,-4.89828 -12.78109,-10.82614 z"
       id="path23173"
       transform="scale(0.26458333)" />
    <path
       style="opacity:1;fill:#000000;fill-opacity:0;stroke-width:0.5"
       d="m 553.69495,310.6931 c -9.59472,-8.4188 -17.86444,-15.70704 -18.37716,-16.1961 -0.90264,-0.86099 -0.69891,-1.11682 6.42503,-8.0681 4.04647,-3.94839 7.5483,-7.25009 7.78182,-7.33711 0.23353,-0.087 8.55347,7.20519 18.48877,16.20488 l 18.06417,16.36309 -7.15732,7.17012 C 574.98373,322.77345 571.62275,326 571.45142,326 c -0.17133,0 -8.16174,-6.88811 -17.75647,-15.3069 z"
       id="path23212"
       transform="scale(0.26458333)" />
    <path
       style="fill:none;stroke:#000000;stroke-width:0.592594;stroke-linecap:butt;stroke-linejoin:miter;stroke-miterlimit:4;stroke-dasharray:none;stroke-opacity:1"
       d="M 61.664231,69.520188 C 76.048449,58.27135 86.892854,32.577987 72.09204,19.611627"
       id="path23467"
       sodipodi:nodetypes="cc" />
    <path
       style="fill:none;stroke:#000000;stroke-width:0.680917;stroke-linecap:butt;stroke-linejoin:miter;stroke-miterlimit:4;stroke-dasharray:none;stroke-opacity:1"
       d="M 80.309696,76.782294 C 95.006072,62.245888 106.08583,29.043422 90.963804,12.287534"
       id="path23467-0"
       sodipodi:nodetypes="cc" />
    <path
       style="fill:none;stroke:#000000;stroke-width:0.589056;stroke-linecap:butt;stroke-linejoin:miter;stroke-miterlimit:4;stroke-dasharray:none;stroke-opacity:1"
       d="m 124.28145,84.370462 c 1.3441,-21.587118 9.94232,-68.961578 28.1117,-75.4159469 4.24633,-1.4899797 5.66388,-2.0251507 5.66388,-2.0251507 l 2.40718,-0.5444667"
       id="path23469"
       sodipodi:nodetypes="cccc" />
    <path
       style="fill:none;stroke:#000000;stroke-width:0.684414;stroke-linecap:butt;stroke-linejoin:miter;stroke-miterlimit:4;stroke-dasharray:none;stroke-opacity:1"
       d="m 101.07173,90.754688 c -0.50471,-10.675883 4.74312,-20.193988 5.18148,-30.59897 0.15493,-8.183877 0.22362,-8.581769 0,-12.511145 -3.53854,-17.00562 3.12444,-27.557197 9.18488,-40.9364213 v 0"
       id="path23471"
       sodipodi:nodetypes="ccccc" />
  </g>
</svg>
